<svg xmlns="http://www.w3.org/2000/svg" viewBox="0 0 16 16" shape-rendering="crispEdges"><rect x="0" y="1" width="16" height="1" fill="#1b1b20"/><rect x="0" y="2" width="1" height="1" fill="#1b1b20"/><rect x="1" y="2" width="1" height="1" fill="#5a5c68"/><rect x="2" y="2" width="1" height="1" fill="#f2777a"/><rect x="3" y="2" width="1" height="1" fill="#5a5c68"/><rect x="4" y="2" width="1" height="1" fill="#ffd479"/><rect x="5" y="2" width="1" height="1" fill="#5a5c68"/><rect x="6" y="2" width="1" height="1" fill="#94d294"/><rect x="7" y="2" width="8" height="1" fill="#5a5c68"/><rect x="15" y="2" width="1" height="1" fill="#1b1b20"/><rect x="0" y="3" width="16" height="1" fill="#1b1b20"/><rect x="0" y="4" width="1" height="1" fill="#1b1b20"/><rect x="1" y="4" width="14" height="1" fill="#26262c"/><rect x="15" y="4" width="1" height="1" fill="#1b1b20"/><rect x="0" y="5" width="1" height="1" fill="#1b1b20"/><rect x="1" y="5" width="11" height="1" fill="#26262c"/><rect x="12" y="5" width="2" height="1" fill="#f2777a"/><rect x="14" y="5" width="1" height="1" fill="#26262c"/><rect x="15" y="5" width="1" height="1" fill="#1b1b20"/><rect x="0" y="6" width="1" height="1" fill="#1b1b20"/><rect x="1" y="6" width="11" height="1" fill="#26262c"/><rect x="12" y="6" width="2" height="1" fill="#f2777a"/><rect x="14" y="6" width="1" height="1" fill="#26262c"/><rect x="15" y="6" width="1" height="1" fill="#1b1b20"/><rect x="0" y="7" width="1" height="1" fill="#1b1b20"/><rect x="1" y="7" width="5" height="1" fill="#26262c"/><rect x="6" y="7" width="2" height="1" fill="#94d294"/><rect x="8" y="7" width="4" height="1" fill="#26262c"/><rect x="12" y="7" width="2" height="1" fill="#f2777a"/><rect x="14" y="7" width="1" height="1" fill="#26262c"/><rect x="15" y="7" width="1" height="1" fill="#1b1b20"/><rect x="0" y="8" width="1" height="1" fill="#1b1b20"/><rect x="1" y="8" width="5" height="1" fill="#26262c"/><rect x="6" y="8" width="2" height="1" fill="#94d294"/><rect x="8" y="8" width="4" height="1" fill="#26262c"/><rect x="12" y="8" width="2" height="1" fill="#f2777a"/><rect x="14" y="8" width="1" height="1" fill="#26262c"/><rect x="15" y="8" width="1" height="1" fill="#1b1b20"/><rect x="0" y="9" width="1" height="1" fill="#1b1b20"/><rect x="1" y="9" width="5" height="1" fill="#26262c"/><rect x="6" y="9" width="2" height="1" fill="#94d294"/><rect x="8" y="9" width="1" height="1" fill="#26262c"/><rect x="9" y="9" width="2" height="1" fill="#ffd479"/><rect x="11" y="9" width="1" height="1" fill="#26262c"/><rect x="12" y="9" width="2" height="1" fill="#f2777a"/><rect x="14" y="9" width="1" height="1" fill="#26262c"/><rect x="15" y="9" width="1" height="1" fill="#1b1b20"/><rect x="0" y="10" width="1" height="1" fill="#1b1b20"/><rect x="1" y="10" width="2" height="1" fill="#26262c"/><rect x="3" y="10" width="2" height="1" fill="#6db3f5"/><rect x="5" y="10" width="1" height="1" fill="#26262c"/><rect x="6" y="10" width="2" height="1" fill="#94d294"/><rect x="8" y="10" width="1" height="1" fill="#26262c"/><rect x="9" y="10" width="2" height="1" fill="#ffd479"/><rect x="11" y="10" width="1" height="1" fill="#26262c"/><rect x="12" y="10" width="2" height="1" fill="#f2777a"/><rect x="14" y="10" width="1" height="1" fill="#26262c"/><rect x="15" y="10" width="1" height="1" fill="#1b1b20"/><rect x="0" y="11" width="1" height="1" fill="#1b1b20"/><rect x="1" y="11" width="2" height="1" fill="#26262c"/><rect x="3" y="11" width="2" height="1" fill="#6db3f5"/><rect x="5" y="11" width="1" height="1" fill="#26262c"/><rect x="6" y="11" width="2" height="1" fill="#94d294"/><rect x="8" y="11" width="1" height="1" fill="#26262c"/><rect x="9" y="11" width="2" height="1" fill="#ffd479"/><rect x="11" y="11" width="1" height="1" fill="#26262c"/><rect x="12" y="11" width="2" height="1" fill="#f2777a"/><rect x="14" y="11" width="1" height="1" fill="#26262c"/><rect x="15" y="11" width="1" height="1" fill="#1b1b20"/><rect x="0" y="12" width="1" height="1" fill="#1b1b20"/><rect x="1" y="12" width="2" height="1" fill="#26262c"/><rect x="3" y="12" width="2" height="1" fill="#6db3f5"/><rect x="5" y="12" width="1" height="1" fill="#26262c"/><rect x="6" y="12" width="2" height="1" fill="#94d294"/><rect x="8" y="12" width="1" height="1" fill="#26262c"/><rect x="9" y="12" width="2" height="1" fill="#ffd479"/><rect x="11" y="12" width="1" height="1" fill="#26262c"/><rect x="12" y="12" width="2" height="1" fill="#f2777a"/><rect x="14" y="12" width="1" height="1" fill="#26262c"/><rect x="15" y="12" width="1" height="1" fill="#1b1b20"/><rect x="0" y="13" width="1" height="1" fill="#1b1b20"/><rect x="1" y="13" width="1" height="1" fill="#26262c"/><rect x="2" y="13" width="13" height="1" fill="#9a9ca8"/><rect x="15" y="13" width="1" height="1" fill="#1b1b20"/><rect x="0" y="14" width="16" height="1" fill="#1b1b20"/></svg>
